<mxfile host="app.diagrams.net" agent="Mozilla/5.0 (Windows NT 10.0; Win64; x64) AppleWebKit/537.36 (KHTML, like Gecko) Chrome/141.0.0.0 Safari/537.36" version="28.2.7">
  <diagram name="Página-1" id="mdh5aKbSdTvP_oUSUPG0">
    <mxGraphModel dx="2456" dy="672" grid="1" gridSize="10" guides="1" tooltips="1" connect="1" arrows="1" fold="1" page="1" pageScale="1" pageWidth="1169" pageHeight="827" background="light-dark(#000000, #121212)" math="0" shadow="0">
      <root>
        <mxCell id="0" />
        <mxCell id="1" parent="0" />
        <mxCell id="1znggzep8ZsEVj0QqPpc-2" value="AWS Cloud" style="points=[[0,0],[0.25,0],[0.5,0],[0.75,0],[1,0],[1,0.25],[1,0.5],[1,0.75],[1,1],[0.75,1],[0.5,1],[0.25,1],[0,1],[0,0.75],[0,0.5],[0,0.25]];outlineConnect=0;gradientColor=none;html=1;whiteSpace=wrap;fontSize=12;fontStyle=0;container=1;pointerEvents=0;collapsible=0;recursiveResize=0;shape=mxgraph.aws4.group;grIcon=mxgraph.aws4.group_aws_cloud_alt;strokeColor=#232F3E;fillColor=none;verticalAlign=top;align=left;spacingLeft=30;fontColor=#232F3E;dashed=0;" vertex="1" parent="1">
          <mxGeometry x="60" y="370" width="1090" height="664" as="geometry" />
        </mxCell>
        <mxCell id="1znggzep8ZsEVj0QqPpc-5" value="Region" style="points=[[0,0],[0.25,0],[0.5,0],[0.75,0],[1,0],[1,0.25],[1,0.5],[1,0.75],[1,1],[0.75,1],[0.5,1],[0.25,1],[0,1],[0,0.75],[0,0.5],[0,0.25]];outlineConnect=0;gradientColor=none;html=1;whiteSpace=wrap;fontSize=12;fontStyle=0;container=1;pointerEvents=0;collapsible=0;recursiveResize=0;shape=mxgraph.aws4.group;grIcon=mxgraph.aws4.group_region;strokeColor=#00A4A6;fillColor=none;verticalAlign=top;align=left;spacingLeft=30;fontColor=#147EBA;dashed=1;" vertex="1" parent="1znggzep8ZsEVj0QqPpc-2">
          <mxGeometry x="20" y="30" width="1060" height="634" as="geometry" />
        </mxCell>
        <mxCell id="1znggzep8ZsEVj0QqPpc-10" value="" style="edgeStyle=orthogonalEdgeStyle;rounded=0;orthogonalLoop=1;jettySize=auto;html=1;flowAnimation=1;shadow=0;" edge="1" parent="1znggzep8ZsEVj0QqPpc-5" source="1znggzep8ZsEVj0QqPpc-1" target="1znggzep8ZsEVj0QqPpc-8">
          <mxGeometry relative="1" as="geometry" />
        </mxCell>
        <mxCell id="1znggzep8ZsEVj0QqPpc-1" value="" style="sketch=0;points=[[0,0,0],[0.25,0,0],[0.5,0,0],[0.75,0,0],[1,0,0],[0,1,0],[0.25,1,0],[0.5,1,0],[0.75,1,0],[1,1,0],[0,0.25,0],[0,0.5,0],[0,0.75,0],[1,0.25,0],[1,0.5,0],[1,0.75,0]];outlineConnect=0;fontColor=#232F3E;fillColor=#E7157B;strokeColor=#ffffff;dashed=0;verticalLabelPosition=bottom;verticalAlign=top;align=center;html=1;fontSize=12;fontStyle=0;aspect=fixed;shape=mxgraph.aws4.resourceIcon;resIcon=mxgraph.aws4.api_gateway;" vertex="1" parent="1znggzep8ZsEVj0QqPpc-5">
          <mxGeometry x="100" y="120" width="48" height="48" as="geometry" />
        </mxCell>
        <mxCell id="1znggzep8ZsEVj0QqPpc-11" style="edgeStyle=orthogonalEdgeStyle;rounded=0;orthogonalLoop=1;jettySize=auto;html=1;flowAnimation=1;shadow=0;" edge="1" parent="1znggzep8ZsEVj0QqPpc-5" source="1znggzep8ZsEVj0QqPpc-8">
          <mxGeometry relative="1" as="geometry">
            <mxPoint x="150" y="160" as="targetPoint" />
            <Array as="points">
              <mxPoint x="150" y="160" />
            </Array>
          </mxGeometry>
        </mxCell>
        <mxCell id="1znggzep8ZsEVj0QqPpc-8" value="" style="sketch=0;points=[[0,0,0],[0.25,0,0],[0.5,0,0],[0.75,0,0],[1,0,0],[0,1,0],[0.25,1,0],[0.5,1,0],[0.75,1,0],[1,1,0],[0,0.25,0],[0,0.5,0],[0,0.75,0],[1,0.25,0],[1,0.5,0],[1,0.75,0]];outlineConnect=0;fontColor=#232F3E;fillColor=#ED7100;strokeColor=#ffffff;dashed=0;verticalLabelPosition=bottom;verticalAlign=top;align=center;html=1;fontSize=12;fontStyle=0;aspect=fixed;shape=mxgraph.aws4.resourceIcon;resIcon=mxgraph.aws4.lambda;" vertex="1" parent="1znggzep8ZsEVj0QqPpc-5">
          <mxGeometry x="250" y="120" width="50" height="50" as="geometry" />
        </mxCell>
        <mxCell id="1znggzep8ZsEVj0QqPpc-7" value="" style="sketch=0;points=[[0,0,0],[0.25,0,0],[0.5,0,0],[0.75,0,0],[1,0,0],[0,1,0],[0.25,1,0],[0.5,1,0],[0.75,1,0],[1,1,0],[0,0.25,0],[0,0.5,0],[0,0.75,0],[1,0.25,0],[1,0.5,0],[1,0.75,0]];outlineConnect=0;fontColor=#232F3E;fillColor=#ED7100;strokeColor=#ffffff;dashed=0;verticalLabelPosition=bottom;verticalAlign=top;align=center;html=1;fontSize=12;fontStyle=0;aspect=fixed;shape=mxgraph.aws4.resourceIcon;resIcon=mxgraph.aws4.lambda;" vertex="1" parent="1znggzep8ZsEVj0QqPpc-5">
          <mxGeometry x="320" y="387" width="49" height="49" as="geometry" />
        </mxCell>
        <mxCell id="1znggzep8ZsEVj0QqPpc-25" value="" style="edgeStyle=orthogonalEdgeStyle;rounded=0;orthogonalLoop=1;jettySize=auto;html=1;flowAnimation=1;" edge="1" parent="1znggzep8ZsEVj0QqPpc-5" source="1znggzep8ZsEVj0QqPpc-12" target="1znggzep8ZsEVj0QqPpc-7">
          <mxGeometry relative="1" as="geometry" />
        </mxCell>
        <mxCell id="1znggzep8ZsEVj0QqPpc-12" value="" style="sketch=0;points=[[0,0,0],[0.25,0,0],[0.5,0,0],[0.75,0,0],[1,0,0],[0,1,0],[0.25,1,0],[0.5,1,0],[0.75,1,0],[1,1,0],[0,0.25,0],[0,0.5,0],[0,0.75,0],[1,0.25,0],[1,0.5,0],[1,0.75,0]];outlineConnect=0;fontColor=#232F3E;fillColor=#E7157B;strokeColor=#ffffff;dashed=0;verticalLabelPosition=bottom;verticalAlign=top;align=center;html=1;fontSize=12;fontStyle=0;aspect=fixed;shape=mxgraph.aws4.resourceIcon;resIcon=mxgraph.aws4.sqs;" vertex="1" parent="1znggzep8ZsEVj0QqPpc-5">
          <mxGeometry x="220" y="388" width="48" height="48" as="geometry" />
        </mxCell>
        <mxCell id="1znggzep8ZsEVj0QqPpc-29" value="" style="sketch=0;points=[[0,0,0],[0.25,0,0],[0.5,0,0],[0.75,0,0],[1,0,0],[0,1,0],[0.25,1,0],[0.5,1,0],[0.75,1,0],[1,1,0],[0,0.25,0],[0,0.5,0],[0,0.75,0],[1,0.25,0],[1,0.5,0],[1,0.75,0]];outlineConnect=0;fontColor=#232F3E;fillColor=#7AA116;strokeColor=#ffffff;dashed=0;verticalLabelPosition=bottom;verticalAlign=top;align=center;html=1;fontSize=12;fontStyle=0;aspect=fixed;shape=mxgraph.aws4.resourceIcon;resIcon=mxgraph.aws4.s3;" vertex="1" parent="1znggzep8ZsEVj0QqPpc-5">
          <mxGeometry x="4" y="387" width="48" height="48" as="geometry" />
        </mxCell>
        <mxCell id="1znggzep8ZsEVj0QqPpc-31" style="edgeStyle=orthogonalEdgeStyle;rounded=0;orthogonalLoop=1;jettySize=auto;html=1;entryX=0;entryY=0.5;entryDx=0;entryDy=0;entryPerimeter=0;flowAnimation=1;" edge="1" parent="1znggzep8ZsEVj0QqPpc-5" source="1znggzep8ZsEVj0QqPpc-29" target="1znggzep8ZsEVj0QqPpc-12">
          <mxGeometry relative="1" as="geometry">
            <Array as="points">
              <mxPoint x="120" y="412" />
              <mxPoint x="120" y="412" />
            </Array>
          </mxGeometry>
        </mxCell>
        <mxCell id="1znggzep8ZsEVj0QqPpc-32" value="" style="sketch=0;points=[[0,0,0],[0.25,0,0],[0.5,0,0],[0.75,0,0],[1,0,0],[0,1,0],[0.25,1,0],[0.5,1,0],[0.75,1,0],[1,1,0],[0,0.25,0],[0,0.5,0],[0,0.75,0],[1,0.25,0],[1,0.5,0],[1,0.75,0]];outlineConnect=0;fontColor=#232F3E;fillColor=#C925D1;strokeColor=#ffffff;dashed=0;verticalLabelPosition=bottom;verticalAlign=top;align=center;html=1;fontSize=12;fontStyle=0;aspect=fixed;shape=mxgraph.aws4.resourceIcon;resIcon=mxgraph.aws4.dynamodb;" vertex="1" parent="1znggzep8ZsEVj0QqPpc-5">
          <mxGeometry x="430" y="387" width="48" height="48" as="geometry" />
        </mxCell>
        <mxCell id="1znggzep8ZsEVj0QqPpc-36" style="edgeStyle=orthogonalEdgeStyle;rounded=0;orthogonalLoop=1;jettySize=auto;html=1;entryX=0;entryY=0.5;entryDx=0;entryDy=0;entryPerimeter=0;flowAnimation=1;" edge="1" parent="1znggzep8ZsEVj0QqPpc-5" source="1znggzep8ZsEVj0QqPpc-7" target="1znggzep8ZsEVj0QqPpc-32">
          <mxGeometry relative="1" as="geometry" />
        </mxCell>
        <mxCell id="1znggzep8ZsEVj0QqPpc-37" value="" style="sketch=0;points=[[0,0,0],[0.25,0,0],[0.5,0,0],[0.75,0,0],[1,0,0],[0,1,0],[0.25,1,0],[0.5,1,0],[0.75,1,0],[1,1,0],[0,0.25,0],[0,0.5,0],[0,0.75,0],[1,0.25,0],[1,0.5,0],[1,0.75,0]];outlineConnect=0;fontColor=#232F3E;fillColor=#E7157B;strokeColor=#ffffff;dashed=0;verticalLabelPosition=bottom;verticalAlign=top;align=center;html=1;fontSize=12;fontStyle=0;aspect=fixed;shape=mxgraph.aws4.resourceIcon;resIcon=mxgraph.aws4.eventbridge;" vertex="1" parent="1znggzep8ZsEVj0QqPpc-5">
          <mxGeometry x="458" y="214" width="50" height="50" as="geometry" />
        </mxCell>
        <mxCell id="1znggzep8ZsEVj0QqPpc-39" value="Lambda&lt;div&gt;Pre-validação&lt;/div&gt;" style="text;html=1;whiteSpace=wrap;strokeColor=none;fillColor=none;align=center;verticalAlign=middle;rounded=0;" vertex="1" parent="1znggzep8ZsEVj0QqPpc-5">
          <mxGeometry x="235" y="90" width="80" height="30" as="geometry" />
        </mxCell>
        <mxCell id="1znggzep8ZsEVj0QqPpc-40" value="API Gateway&lt;div&gt;(REST)&lt;/div&gt;" style="text;html=1;whiteSpace=wrap;strokeColor=none;fillColor=none;align=center;verticalAlign=middle;rounded=0;" vertex="1" parent="1znggzep8ZsEVj0QqPpc-5">
          <mxGeometry x="84" y="90" width="80" height="30" as="geometry" />
        </mxCell>
        <mxCell id="1znggzep8ZsEVj0QqPpc-45" value="S3&lt;div&gt;(Data Lake)&lt;/div&gt;" style="text;html=1;whiteSpace=wrap;strokeColor=none;fillColor=none;align=center;verticalAlign=middle;rounded=0;" vertex="1" parent="1znggzep8ZsEVj0QqPpc-5">
          <mxGeometry x="-7" y="438" width="70" height="30" as="geometry" />
        </mxCell>
        <mxCell id="1znggzep8ZsEVj0QqPpc-50" value="VPC" style="points=[[0,0],[0.25,0],[0.5,0],[0.75,0],[1,0],[1,0.25],[1,0.5],[1,0.75],[1,1],[0.75,1],[0.5,1],[0.25,1],[0,1],[0,0.75],[0,0.5],[0,0.25]];outlineConnect=0;gradientColor=none;html=1;whiteSpace=wrap;fontSize=12;fontStyle=0;container=1;pointerEvents=0;collapsible=0;recursiveResize=0;shape=mxgraph.aws4.group;grIcon=mxgraph.aws4.group_vpc2;strokeColor=#8C4FFF;fillColor=none;verticalAlign=top;align=left;spacingLeft=30;fontColor=#AAB7B8;dashed=0;" vertex="1" parent="1">
          <mxGeometry x="140" y="460" width="980" height="560" as="geometry" />
        </mxCell>
        <mxCell id="1znggzep8ZsEVj0QqPpc-15" value="" style="sketch=0;points=[[0,0,0],[0.25,0,0],[0.5,0,0],[0.75,0,0],[1,0,0],[0,1,0],[0.25,1,0],[0.5,1,0],[0.75,1,0],[1,1,0],[0,0.25,0],[0,0.5,0],[0,0.75,0],[1,0.25,0],[1,0.5,0],[1,0.75,0]];outlineConnect=0;fontColor=#232F3E;fillColor=#E7157B;strokeColor=#ffffff;dashed=0;verticalLabelPosition=bottom;verticalAlign=top;align=center;html=1;fontSize=12;fontStyle=0;aspect=fixed;shape=mxgraph.aws4.resourceIcon;resIcon=mxgraph.aws4.sqs;" vertex="1" parent="1znggzep8ZsEVj0QqPpc-50">
          <mxGeometry x="12" y="230" width="48" height="48" as="geometry" />
        </mxCell>
        <mxCell id="1znggzep8ZsEVj0QqPpc-6" value="" style="sketch=0;points=[[0,0,0],[0.25,0,0],[0.5,0,0],[0.75,0,0],[1,0,0],[0,1,0],[0.25,1,0],[0.5,1,0],[0.75,1,0],[1,1,0],[0,0.25,0],[0,0.5,0],[0,0.75,0],[1,0.25,0],[1,0.5,0],[1,0.75,0]];outlineConnect=0;fontColor=#232F3E;fillColor=#ED7100;strokeColor=#ffffff;dashed=0;verticalLabelPosition=bottom;verticalAlign=top;align=center;html=1;fontSize=12;fontStyle=0;aspect=fixed;shape=mxgraph.aws4.resourceIcon;resIcon=mxgraph.aws4.lambda;" vertex="1" parent="1znggzep8ZsEVj0QqPpc-50">
          <mxGeometry x="235" y="190" width="50" height="50" as="geometry" />
        </mxCell>
        <mxCell id="1znggzep8ZsEVj0QqPpc-14" value="" style="sketch=0;points=[[0,0,0],[0.25,0,0],[0.5,0,0],[0.75,0,0],[1,0,0],[0,1,0],[0.25,1,0],[0.5,1,0],[0.75,1,0],[1,1,0],[0,0.25,0],[0,0.5,0],[0,0.75,0],[1,0.25,0],[1,0.5,0],[1,0.75,0]];outlineConnect=0;fontColor=#232F3E;fillColor=#E7157B;strokeColor=#ffffff;dashed=0;verticalLabelPosition=bottom;verticalAlign=top;align=center;html=1;fontSize=12;fontStyle=0;aspect=fixed;shape=mxgraph.aws4.resourceIcon;resIcon=mxgraph.aws4.sqs;" vertex="1" parent="1znggzep8ZsEVj0QqPpc-50">
          <mxGeometry x="122" y="200" width="48" height="48" as="geometry" />
        </mxCell>
        <mxCell id="1znggzep8ZsEVj0QqPpc-23" value="" style="edgeStyle=orthogonalEdgeStyle;rounded=0;orthogonalLoop=1;jettySize=auto;html=1;flowAnimation=1;shadow=0;" edge="1" parent="1znggzep8ZsEVj0QqPpc-50" source="1znggzep8ZsEVj0QqPpc-14" target="1znggzep8ZsEVj0QqPpc-15">
          <mxGeometry relative="1" as="geometry" />
        </mxCell>
        <mxCell id="1znggzep8ZsEVj0QqPpc-22" value="" style="edgeStyle=orthogonalEdgeStyle;rounded=0;orthogonalLoop=1;jettySize=auto;html=1;flowAnimation=1;" edge="1" parent="1znggzep8ZsEVj0QqPpc-50" source="1znggzep8ZsEVj0QqPpc-14" target="1znggzep8ZsEVj0QqPpc-6">
          <mxGeometry relative="1" as="geometry">
            <Array as="points">
              <mxPoint x="140" y="225" />
              <mxPoint x="140" y="225" />
            </Array>
          </mxGeometry>
        </mxCell>
        <mxCell id="1znggzep8ZsEVj0QqPpc-42" value="SQS FIFO&lt;div&gt;Pedidos&lt;/div&gt;" style="text;html=1;whiteSpace=wrap;strokeColor=none;fillColor=none;align=center;verticalAlign=middle;rounded=0;" vertex="1" parent="1znggzep8ZsEVj0QqPpc-50">
          <mxGeometry x="116" y="248" width="60" height="30" as="geometry" />
        </mxCell>
        <mxCell id="1znggzep8ZsEVj0QqPpc-44" value="SQS DLQ FIFO&lt;div&gt;Pedidos&lt;/div&gt;" style="text;html=1;whiteSpace=wrap;strokeColor=none;fillColor=none;align=center;verticalAlign=middle;rounded=0;" vertex="1" parent="1znggzep8ZsEVj0QqPpc-50">
          <mxGeometry x="-10" y="200" width="100" height="30" as="geometry" />
        </mxCell>
        <mxCell id="1znggzep8ZsEVj0QqPpc-41" value="Lambda&amp;nbsp;&lt;div&gt;Validação&lt;/div&gt;" style="text;html=1;whiteSpace=wrap;strokeColor=none;fillColor=none;align=center;verticalAlign=middle;rounded=0;" vertex="1" parent="1znggzep8ZsEVj0QqPpc-50">
          <mxGeometry x="230" y="160" width="60" height="30" as="geometry" />
        </mxCell>
        <mxCell id="1znggzep8ZsEVj0QqPpc-54" value="DynamoDB&lt;div&gt;Controle Arquivo Histórico&lt;/div&gt;" style="text;html=1;whiteSpace=wrap;strokeColor=none;fillColor=none;align=center;verticalAlign=middle;rounded=0;" vertex="1" parent="1znggzep8ZsEVj0QqPpc-50">
          <mxGeometry x="340" y="380" width="110" height="30" as="geometry" />
        </mxCell>
        <mxCell id="1znggzep8ZsEVj0QqPpc-46" value="" style="sketch=0;outlineConnect=0;fontColor=#232F3E;gradientColor=none;fillColor=#E7157B;strokeColor=none;dashed=0;verticalLabelPosition=bottom;verticalAlign=top;align=center;html=1;fontSize=12;fontStyle=0;aspect=fixed;pointerEvents=1;shape=mxgraph.aws4.eventbridge_custom_event_bus_resource;" vertex="1" parent="1znggzep8ZsEVj0QqPpc-50">
          <mxGeometry x="340" y="110" width="32.48" height="28.73" as="geometry" />
        </mxCell>
        <mxCell id="1znggzep8ZsEVj0QqPpc-48" value="" style="sketch=0;outlineConnect=0;fontColor=#232F3E;gradientColor=none;fillColor=#E7157B;strokeColor=none;dashed=0;verticalLabelPosition=bottom;verticalAlign=top;align=center;html=1;fontSize=12;fontStyle=0;aspect=fixed;pointerEvents=1;shape=mxgraph.aws4.rule_3;" vertex="1" parent="1znggzep8ZsEVj0QqPpc-50">
          <mxGeometry x="455.5" y="110" width="33" height="28.77" as="geometry" />
        </mxCell>
        <mxCell id="1znggzep8ZsEVj0QqPpc-57" value="Custom envent bus" style="text;html=1;whiteSpace=wrap;strokeColor=none;fillColor=none;align=center;verticalAlign=middle;rounded=0;" vertex="1" parent="1znggzep8ZsEVj0QqPpc-50">
          <mxGeometry x="321.24" y="138.77" width="70" height="30" as="geometry" />
        </mxCell>
        <mxCell id="1znggzep8ZsEVj0QqPpc-58" value="Lambda validação arquivos&lt;div&gt;JSON&lt;/div&gt;" style="text;html=1;whiteSpace=wrap;strokeColor=none;fillColor=none;align=center;verticalAlign=middle;rounded=0;" vertex="1" parent="1znggzep8ZsEVj0QqPpc-50">
          <mxGeometry x="230" y="380" width="110" height="30" as="geometry" />
        </mxCell>
        <mxCell id="1znggzep8ZsEVj0QqPpc-34" value="" style="sketch=0;points=[[0,0,0],[0.25,0,0],[0.5,0,0],[0.75,0,0],[1,0,0],[0,1,0],[0.25,1,0],[0.5,1,0],[0.75,1,0],[1,1,0],[0,0.25,0],[0,0.5,0],[0,0.75,0],[1,0.25,0],[1,0.5,0],[1,0.75,0]];outlineConnect=0;fontColor=#232F3E;fillColor=#E7157B;strokeColor=#ffffff;dashed=0;verticalLabelPosition=bottom;verticalAlign=top;align=center;html=1;fontSize=12;fontStyle=0;aspect=fixed;shape=mxgraph.aws4.resourceIcon;resIcon=mxgraph.aws4.sns;" vertex="1" parent="1znggzep8ZsEVj0QqPpc-50">
          <mxGeometry x="452" y="242" width="48" height="48" as="geometry" />
        </mxCell>
        <mxCell id="1znggzep8ZsEVj0QqPpc-56" value="Rules" style="text;html=1;whiteSpace=wrap;strokeColor=none;fillColor=none;align=center;verticalAlign=middle;rounded=0;" vertex="1" parent="1znggzep8ZsEVj0QqPpc-50">
          <mxGeometry x="444" y="138.77" width="60" height="30" as="geometry" />
        </mxCell>
        <mxCell id="1znggzep8ZsEVj0QqPpc-47" value="" style="sketch=0;outlineConnect=0;fontColor=#232F3E;gradientColor=none;fillColor=#E7157B;strokeColor=none;dashed=0;verticalLabelPosition=bottom;verticalAlign=top;align=center;html=1;fontSize=12;fontStyle=0;aspect=fixed;pointerEvents=1;shape=mxgraph.aws4.event;" vertex="1" parent="1znggzep8ZsEVj0QqPpc-50">
          <mxGeometry x="70" y="290" width="30" height="30" as="geometry" />
        </mxCell>
        <mxCell id="1znggzep8ZsEVj0QqPpc-69" value="S3 Notification" style="text;html=1;whiteSpace=wrap;strokeColor=none;fillColor=none;align=center;verticalAlign=middle;rounded=0;" vertex="1" parent="1znggzep8ZsEVj0QqPpc-50">
          <mxGeometry x="55" y="320" width="60" height="30" as="geometry" />
        </mxCell>
        <mxCell id="1znggzep8ZsEVj0QqPpc-71" value="SQS arquivos JSON" style="text;html=1;whiteSpace=wrap;strokeColor=none;fillColor=none;align=center;verticalAlign=middle;rounded=0;" vertex="1" parent="1znggzep8ZsEVj0QqPpc-50">
          <mxGeometry x="140" y="380" width="80" height="30" as="geometry" />
        </mxCell>
        <mxCell id="1znggzep8ZsEVj0QqPpc-73" value="SQS DLQ arquivos JSON" style="text;html=1;whiteSpace=wrap;strokeColor=none;fillColor=none;align=center;verticalAlign=middle;rounded=0;" vertex="1" parent="1znggzep8ZsEVj0QqPpc-50">
          <mxGeometry x="40" y="480" width="90" height="30" as="geometry" />
        </mxCell>
        <mxCell id="1znggzep8ZsEVj0QqPpc-75" value="SNS notificação de erro" style="text;html=1;whiteSpace=wrap;strokeColor=none;fillColor=none;align=center;verticalAlign=middle;rounded=0;" vertex="1" parent="1znggzep8ZsEVj0QqPpc-50">
          <mxGeometry x="452" y="300" width="60" height="30" as="geometry" />
        </mxCell>
        <mxCell id="1znggzep8ZsEVj0QqPpc-82" value="" style="sketch=0;points=[[0,0,0],[0.25,0,0],[0.5,0,0],[0.75,0,0],[1,0,0],[0,1,0],[0.25,1,0],[0.5,1,0],[0.75,1,0],[1,1,0],[0,0.25,0],[0,0.5,0],[0,0.75,0],[1,0.25,0],[1,0.5,0],[1,0.75,0]];outlineConnect=0;fontColor=#232F3E;fillColor=#E7157B;strokeColor=#ffffff;dashed=0;verticalLabelPosition=bottom;verticalAlign=top;align=center;html=1;fontSize=12;fontStyle=0;aspect=fixed;shape=mxgraph.aws4.resourceIcon;resIcon=mxgraph.aws4.sqs;" vertex="1" parent="1znggzep8ZsEVj0QqPpc-50">
          <mxGeometry x="586" y="30" width="48" height="48" as="geometry" />
        </mxCell>
        <mxCell id="1znggzep8ZsEVj0QqPpc-107" value="" style="edgeStyle=orthogonalEdgeStyle;rounded=0;orthogonalLoop=1;jettySize=auto;html=1;flowAnimation=1;" edge="1" parent="1znggzep8ZsEVj0QqPpc-50" source="1znggzep8ZsEVj0QqPpc-81">
          <mxGeometry relative="1" as="geometry">
            <mxPoint x="740" y="244" as="targetPoint" />
            <Array as="points">
              <mxPoint x="730" y="244" />
            </Array>
          </mxGeometry>
        </mxCell>
        <mxCell id="1znggzep8ZsEVj0QqPpc-81" value="" style="sketch=0;points=[[0,0,0],[0.25,0,0],[0.5,0,0],[0.75,0,0],[1,0,0],[0,1,0],[0.25,1,0],[0.5,1,0],[0.75,1,0],[1,1,0],[0,0.25,0],[0,0.5,0],[0,0.75,0],[1,0.25,0],[1,0.5,0],[1,0.75,0]];outlineConnect=0;fontColor=#232F3E;fillColor=#E7157B;strokeColor=#ffffff;dashed=0;verticalLabelPosition=bottom;verticalAlign=top;align=center;html=1;fontSize=12;fontStyle=0;aspect=fixed;shape=mxgraph.aws4.resourceIcon;resIcon=mxgraph.aws4.sqs;" vertex="1" parent="1znggzep8ZsEVj0QqPpc-50">
          <mxGeometry x="586" y="220" width="48" height="48" as="geometry" />
        </mxCell>
        <mxCell id="1znggzep8ZsEVj0QqPpc-80" value="" style="sketch=0;points=[[0,0,0],[0.25,0,0],[0.5,0,0],[0.75,0,0],[1,0,0],[0,1,0],[0.25,1,0],[0.5,1,0],[0.75,1,0],[1,1,0],[0,0.25,0],[0,0.5,0],[0,0.75,0],[1,0.25,0],[1,0.5,0],[1,0.75,0]];outlineConnect=0;fontColor=#232F3E;fillColor=#E7157B;strokeColor=#ffffff;dashed=0;verticalLabelPosition=bottom;verticalAlign=top;align=center;html=1;fontSize=12;fontStyle=0;aspect=fixed;shape=mxgraph.aws4.resourceIcon;resIcon=mxgraph.aws4.sqs;" vertex="1" parent="1znggzep8ZsEVj0QqPpc-50">
          <mxGeometry x="598" y="112" width="48" height="48" as="geometry" />
        </mxCell>
        <mxCell id="1znggzep8ZsEVj0QqPpc-79" value="" style="sketch=0;points=[[0,0,0],[0.25,0,0],[0.5,0,0],[0.75,0,0],[1,0,0],[0,1,0],[0.25,1,0],[0.5,1,0],[0.75,1,0],[1,1,0],[0,0.25,0],[0,0.5,0],[0,0.75,0],[1,0.25,0],[1,0.5,0],[1,0.75,0]];outlineConnect=0;fontColor=#232F3E;fillColor=#E7157B;strokeColor=#ffffff;dashed=0;verticalLabelPosition=bottom;verticalAlign=top;align=center;html=1;fontSize=12;fontStyle=0;aspect=fixed;shape=mxgraph.aws4.resourceIcon;resIcon=mxgraph.aws4.sqs;" vertex="1" parent="1znggzep8ZsEVj0QqPpc-50">
          <mxGeometry x="598" y="320" width="48" height="48" as="geometry" />
        </mxCell>
        <mxCell id="1znggzep8ZsEVj0QqPpc-78" value="" style="sketch=0;points=[[0,0,0],[0.25,0,0],[0.5,0,0],[0.75,0,0],[1,0,0],[0,1,0],[0.25,1,0],[0.5,1,0],[0.75,1,0],[1,1,0],[0,0.25,0],[0,0.5,0],[0,0.75,0],[1,0.25,0],[1,0.5,0],[1,0.75,0]];outlineConnect=0;fontColor=#232F3E;fillColor=#E7157B;strokeColor=#ffffff;dashed=0;verticalLabelPosition=bottom;verticalAlign=top;align=center;html=1;fontSize=12;fontStyle=0;aspect=fixed;shape=mxgraph.aws4.resourceIcon;resIcon=mxgraph.aws4.sqs;" vertex="1" parent="1znggzep8ZsEVj0QqPpc-50">
          <mxGeometry x="646" y="440" width="50" height="50" as="geometry" />
        </mxCell>
        <mxCell id="1znggzep8ZsEVj0QqPpc-77" value="" style="sketch=0;points=[[0,0,0],[0.25,0,0],[0.5,0,0],[0.75,0,0],[1,0,0],[0,1,0],[0.25,1,0],[0.5,1,0],[0.75,1,0],[1,1,0],[0,0.25,0],[0,0.5,0],[0,0.75,0],[1,0.25,0],[1,0.5,0],[1,0.75,0]];outlineConnect=0;fontColor=#232F3E;fillColor=#E7157B;strokeColor=#ffffff;dashed=0;verticalLabelPosition=bottom;verticalAlign=top;align=center;html=1;fontSize=12;fontStyle=0;aspect=fixed;shape=mxgraph.aws4.resourceIcon;resIcon=mxgraph.aws4.sqs;" vertex="1" parent="1znggzep8ZsEVj0QqPpc-50">
          <mxGeometry x="760" y="512" width="48" height="48" as="geometry" />
        </mxCell>
        <mxCell id="1znggzep8ZsEVj0QqPpc-85" value="" style="sketch=0;points=[[0,0,0],[0.25,0,0],[0.5,0,0],[0.75,0,0],[1,0,0],[0,1,0],[0.25,1,0],[0.5,1,0],[0.75,1,0],[1,1,0],[0,0.25,0],[0,0.5,0],[0,0.75,0],[1,0.25,0],[1,0.5,0],[1,0.75,0]];outlineConnect=0;fontColor=#232F3E;fillColor=#ED7100;strokeColor=#ffffff;dashed=0;verticalLabelPosition=bottom;verticalAlign=top;align=center;html=1;fontSize=12;fontStyle=0;aspect=fixed;shape=mxgraph.aws4.resourceIcon;resIcon=mxgraph.aws4.lambda;" vertex="1" parent="1znggzep8ZsEVj0QqPpc-50">
          <mxGeometry x="746" y="60" width="50" height="50" as="geometry" />
        </mxCell>
        <mxCell id="1znggzep8ZsEVj0QqPpc-99" style="edgeStyle=orthogonalEdgeStyle;rounded=0;orthogonalLoop=1;jettySize=auto;html=1;flowAnimation=1;" edge="1" parent="1znggzep8ZsEVj0QqPpc-50" source="1znggzep8ZsEVj0QqPpc-84" target="1znggzep8ZsEVj0QqPpc-33">
          <mxGeometry relative="1" as="geometry" />
        </mxCell>
        <mxCell id="1znggzep8ZsEVj0QqPpc-84" value="" style="sketch=0;points=[[0,0,0],[0.25,0,0],[0.5,0,0],[0.75,0,0],[1,0,0],[0,1,0],[0.25,1,0],[0.5,1,0],[0.75,1,0],[1,1,0],[0,0.25,0],[0,0.5,0],[0,0.75,0],[1,0.25,0],[1,0.5,0],[1,0.75,0]];outlineConnect=0;fontColor=#232F3E;fillColor=#ED7100;strokeColor=#ffffff;dashed=0;verticalLabelPosition=bottom;verticalAlign=top;align=center;html=1;fontSize=12;fontStyle=0;aspect=fixed;shape=mxgraph.aws4.resourceIcon;resIcon=mxgraph.aws4.lambda;" vertex="1" parent="1znggzep8ZsEVj0QqPpc-50">
          <mxGeometry x="750" y="220" width="58" height="58" as="geometry" />
        </mxCell>
        <mxCell id="1znggzep8ZsEVj0QqPpc-119" style="edgeStyle=orthogonalEdgeStyle;rounded=0;orthogonalLoop=1;jettySize=auto;html=1;entryX=0.5;entryY=1;entryDx=0;entryDy=0;flowAnimation=1;" edge="1" parent="1znggzep8ZsEVj0QqPpc-50" source="1znggzep8ZsEVj0QqPpc-83" target="1znggzep8ZsEVj0QqPpc-95">
          <mxGeometry relative="1" as="geometry">
            <Array as="points">
              <mxPoint x="906" y="395" />
            </Array>
          </mxGeometry>
        </mxCell>
        <mxCell id="1znggzep8ZsEVj0QqPpc-83" value="" style="sketch=0;points=[[0,0,0],[0.25,0,0],[0.5,0,0],[0.75,0,0],[1,0,0],[0,1,0],[0.25,1,0],[0.5,1,0],[0.75,1,0],[1,1,0],[0,0.25,0],[0,0.5,0],[0,0.75,0],[1,0.25,0],[1,0.5,0],[1,0.75,0]];outlineConnect=0;fontColor=#232F3E;fillColor=#ED7100;strokeColor=#ffffff;dashed=0;verticalLabelPosition=bottom;verticalAlign=top;align=center;html=1;fontSize=12;fontStyle=0;aspect=fixed;shape=mxgraph.aws4.resourceIcon;resIcon=mxgraph.aws4.lambda;" vertex="1" parent="1znggzep8ZsEVj0QqPpc-50">
          <mxGeometry x="779" y="369" width="52" height="52" as="geometry" />
        </mxCell>
        <mxCell id="1znggzep8ZsEVj0QqPpc-33" value="" style="sketch=0;points=[[0,0,0],[0.25,0,0],[0.5,0,0],[0.75,0,0],[1,0,0],[0,1,0],[0.25,1,0],[0.5,1,0],[0.75,1,0],[1,1,0],[0,0.25,0],[0,0.5,0],[0,0.75,0],[1,0.25,0],[1,0.5,0],[1,0.75,0]];outlineConnect=0;fontColor=#232F3E;fillColor=#C925D1;strokeColor=#ffffff;dashed=0;verticalLabelPosition=bottom;verticalAlign=top;align=center;html=1;fontSize=12;fontStyle=0;aspect=fixed;shape=mxgraph.aws4.resourceIcon;resIcon=mxgraph.aws4.dynamodb;" vertex="1" parent="1znggzep8ZsEVj0QqPpc-50">
          <mxGeometry x="880" y="220" width="58" height="58" as="geometry" />
        </mxCell>
        <mxCell id="1znggzep8ZsEVj0QqPpc-86" value="Lambda Processa pedidos" style="text;html=1;whiteSpace=wrap;strokeColor=none;fillColor=none;align=center;verticalAlign=middle;rounded=0;" vertex="1" parent="1znggzep8ZsEVj0QqPpc-50">
          <mxGeometry x="711" y="30" width="120" height="30" as="geometry" />
        </mxCell>
        <mxCell id="1znggzep8ZsEVj0QqPpc-87" value="SQS Pedidos pendentes&amp;nbsp;" style="text;html=1;whiteSpace=wrap;strokeColor=none;fillColor=none;align=center;verticalAlign=middle;rounded=0;" vertex="1" parent="1znggzep8ZsEVj0QqPpc-50">
          <mxGeometry x="566" width="80" height="30" as="geometry" />
        </mxCell>
        <mxCell id="1znggzep8ZsEVj0QqPpc-88" value="SQS DLQ pedidos pendentes&amp;nbsp;" style="text;html=1;whiteSpace=wrap;strokeColor=none;fillColor=none;align=center;verticalAlign=middle;rounded=0;" vertex="1" parent="1znggzep8ZsEVj0QqPpc-50">
          <mxGeometry x="566" y="160" width="116" height="30" as="geometry" />
        </mxCell>
        <mxCell id="1znggzep8ZsEVj0QqPpc-89" value="Lambda Cancela pedidos" style="text;html=1;whiteSpace=wrap;strokeColor=none;fillColor=none;align=center;verticalAlign=middle;rounded=0;" vertex="1" parent="1znggzep8ZsEVj0QqPpc-50">
          <mxGeometry x="724" y="190" width="110" height="30" as="geometry" />
        </mxCell>
        <mxCell id="1znggzep8ZsEVj0QqPpc-90" value="SQS Cancela pedidos" style="text;html=1;whiteSpace=wrap;strokeColor=none;fillColor=none;align=center;verticalAlign=middle;rounded=0;" vertex="1" parent="1znggzep8ZsEVj0QqPpc-50">
          <mxGeometry x="582" y="270" width="80" height="30" as="geometry" />
        </mxCell>
        <mxCell id="1znggzep8ZsEVj0QqPpc-91" value="SQS DLQ Cancela pedidos" style="text;html=1;whiteSpace=wrap;strokeColor=none;fillColor=none;align=center;verticalAlign=middle;rounded=0;" vertex="1" parent="1znggzep8ZsEVj0QqPpc-50">
          <mxGeometry x="569" y="380" width="110" height="30" as="geometry" />
        </mxCell>
        <mxCell id="1znggzep8ZsEVj0QqPpc-95" value="DynamoDB&lt;div&gt;pedidos(Tabela principal)&lt;/div&gt;" style="text;html=1;whiteSpace=wrap;strokeColor=none;fillColor=none;align=center;verticalAlign=middle;rounded=0;" vertex="1" parent="1znggzep8ZsEVj0QqPpc-50">
          <mxGeometry x="831" y="281" width="150" height="30" as="geometry" />
        </mxCell>
        <mxCell id="1znggzep8ZsEVj0QqPpc-13" value="" style="sketch=0;points=[[0,0,0],[0.25,0,0],[0.5,0,0],[0.75,0,0],[1,0,0],[0,1,0],[0.25,1,0],[0.5,1,0],[0.75,1,0],[1,1,0],[0,0.25,0],[0,0.5,0],[0,0.75,0],[1,0.25,0],[1,0.5,0],[1,0.75,0]];outlineConnect=0;fontColor=#232F3E;fillColor=#E7157B;strokeColor=#ffffff;dashed=0;verticalLabelPosition=bottom;verticalAlign=top;align=center;html=1;fontSize=12;fontStyle=0;aspect=fixed;shape=mxgraph.aws4.resourceIcon;resIcon=mxgraph.aws4.sqs;" vertex="1" parent="1znggzep8ZsEVj0QqPpc-50">
          <mxGeometry x="61" y="431" width="48" height="48" as="geometry" />
        </mxCell>
        <mxCell id="1znggzep8ZsEVj0QqPpc-105" style="edgeStyle=orthogonalEdgeStyle;rounded=0;orthogonalLoop=1;jettySize=auto;html=1;entryX=0.5;entryY=0;entryDx=0;entryDy=0;entryPerimeter=0;flowAnimation=1;" edge="1" parent="1znggzep8ZsEVj0QqPpc-50" source="1znggzep8ZsEVj0QqPpc-82" target="1znggzep8ZsEVj0QqPpc-80">
          <mxGeometry relative="1" as="geometry" />
        </mxCell>
        <mxCell id="1znggzep8ZsEVj0QqPpc-108" style="edgeStyle=orthogonalEdgeStyle;rounded=0;orthogonalLoop=1;jettySize=auto;html=1;entryX=0;entryY=0.5;entryDx=0;entryDy=0;entryPerimeter=0;flowAnimation=1;" edge="1" parent="1znggzep8ZsEVj0QqPpc-50" source="1znggzep8ZsEVj0QqPpc-81" target="1znggzep8ZsEVj0QqPpc-79">
          <mxGeometry relative="1" as="geometry">
            <Array as="points">
              <mxPoint x="620" y="335" />
            </Array>
          </mxGeometry>
        </mxCell>
        <mxCell id="1znggzep8ZsEVj0QqPpc-112" style="edgeStyle=orthogonalEdgeStyle;rounded=0;orthogonalLoop=1;jettySize=auto;html=1;entryX=0;entryY=0.5;entryDx=0;entryDy=0;entryPerimeter=0;flowAnimation=1;" edge="1" parent="1znggzep8ZsEVj0QqPpc-50" source="1znggzep8ZsEVj0QqPpc-78" target="1znggzep8ZsEVj0QqPpc-83">
          <mxGeometry relative="1" as="geometry">
            <Array as="points">
              <mxPoint x="671" y="395" />
            </Array>
          </mxGeometry>
        </mxCell>
        <mxCell id="1znggzep8ZsEVj0QqPpc-113" style="edgeStyle=orthogonalEdgeStyle;rounded=0;orthogonalLoop=1;jettySize=auto;html=1;entryX=0;entryY=0.5;entryDx=0;entryDy=0;entryPerimeter=0;flowAnimation=1;" edge="1" parent="1znggzep8ZsEVj0QqPpc-50" source="1znggzep8ZsEVj0QqPpc-82" target="1znggzep8ZsEVj0QqPpc-85">
          <mxGeometry relative="1" as="geometry" />
        </mxCell>
        <mxCell id="1znggzep8ZsEVj0QqPpc-115" style="edgeStyle=orthogonalEdgeStyle;rounded=0;orthogonalLoop=1;jettySize=auto;html=1;entryX=0.5;entryY=0;entryDx=0;entryDy=0;entryPerimeter=0;flowAnimation=1;" edge="1" parent="1znggzep8ZsEVj0QqPpc-50" source="1znggzep8ZsEVj0QqPpc-85" target="1znggzep8ZsEVj0QqPpc-33">
          <mxGeometry relative="1" as="geometry" />
        </mxCell>
        <mxCell id="1znggzep8ZsEVj0QqPpc-94" value="SQS DLQ Altera pedidos" style="text;html=1;whiteSpace=wrap;strokeColor=none;fillColor=none;align=center;verticalAlign=middle;rounded=0;" vertex="1" parent="1znggzep8ZsEVj0QqPpc-50">
          <mxGeometry x="734" y="480" width="90" height="30" as="geometry" />
        </mxCell>
        <mxCell id="1znggzep8ZsEVj0QqPpc-116" style="edgeStyle=orthogonalEdgeStyle;rounded=0;orthogonalLoop=1;jettySize=auto;html=1;entryX=0;entryY=0.5;entryDx=0;entryDy=0;entryPerimeter=0;flowAnimation=1;" edge="1" parent="1znggzep8ZsEVj0QqPpc-50" source="1znggzep8ZsEVj0QqPpc-93" target="1znggzep8ZsEVj0QqPpc-77">
          <mxGeometry relative="1" as="geometry">
            <Array as="points">
              <mxPoint x="670" y="536" />
            </Array>
          </mxGeometry>
        </mxCell>
        <mxCell id="1znggzep8ZsEVj0QqPpc-92" value="Lambda Altera pedidos" style="text;html=1;whiteSpace=wrap;strokeColor=none;fillColor=none;align=center;verticalAlign=middle;rounded=0;" vertex="1" parent="1znggzep8ZsEVj0QqPpc-50">
          <mxGeometry x="755" y="421" width="100" height="30" as="geometry" />
        </mxCell>
        <mxCell id="1znggzep8ZsEVj0QqPpc-93" value="SQS&lt;div&gt;Altera pedidos&amp;nbsp;&lt;/div&gt;" style="text;html=1;whiteSpace=wrap;strokeColor=none;fillColor=none;align=center;verticalAlign=middle;rounded=0;" vertex="1" parent="1znggzep8ZsEVj0QqPpc-50">
          <mxGeometry x="621" y="490" width="100" height="30" as="geometry" />
        </mxCell>
        <mxCell id="1znggzep8ZsEVj0QqPpc-21" style="edgeStyle=orthogonalEdgeStyle;rounded=0;orthogonalLoop=1;jettySize=auto;html=1;flowAnimation=1;shadow=0;endArrow=none;endFill=0;" edge="1" parent="1" source="1znggzep8ZsEVj0QqPpc-8" target="1znggzep8ZsEVj0QqPpc-14">
          <mxGeometry relative="1" as="geometry">
            <Array as="points">
              <mxPoint x="355" y="620" />
              <mxPoint x="286" y="620" />
            </Array>
          </mxGeometry>
        </mxCell>
        <mxCell id="1znggzep8ZsEVj0QqPpc-59" style="edgeStyle=orthogonalEdgeStyle;rounded=0;orthogonalLoop=1;jettySize=auto;html=1;flowAnimation=1;" edge="1" parent="1" source="1znggzep8ZsEVj0QqPpc-7" target="1znggzep8ZsEVj0QqPpc-42">
          <mxGeometry relative="1" as="geometry">
            <Array as="points">
              <mxPoint x="410" y="760" />
              <mxPoint x="286" y="760" />
            </Array>
          </mxGeometry>
        </mxCell>
        <mxCell id="1znggzep8ZsEVj0QqPpc-35" value="" style="edgeStyle=orthogonalEdgeStyle;rounded=0;orthogonalLoop=1;jettySize=auto;html=1;entryX=0;entryY=0.5;entryDx=0;entryDy=0;entryPerimeter=0;startArrow=none;startFill=0;endArrow=none;endFill=0;flowAnimation=1;" edge="1" parent="1" source="1znggzep8ZsEVj0QqPpc-7" target="1znggzep8ZsEVj0QqPpc-34">
          <mxGeometry relative="1" as="geometry">
            <Array as="points">
              <mxPoint x="425" y="724" />
            </Array>
          </mxGeometry>
        </mxCell>
        <mxCell id="1znggzep8ZsEVj0QqPpc-55" value="EventBridge" style="text;html=1;whiteSpace=wrap;strokeColor=none;fillColor=none;align=center;verticalAlign=middle;rounded=0;" vertex="1" parent="1">
          <mxGeometry x="535.5" y="660" width="60" height="30" as="geometry" />
        </mxCell>
        <mxCell id="1znggzep8ZsEVj0QqPpc-68" style="edgeStyle=orthogonalEdgeStyle;rounded=0;orthogonalLoop=1;jettySize=auto;html=1;entryX=0;entryY=0.75;entryDx=0;entryDy=0;entryPerimeter=0;flowAnimation=1;" edge="1" parent="1" source="1znggzep8ZsEVj0QqPpc-6" target="1znggzep8ZsEVj0QqPpc-37">
          <mxGeometry relative="1" as="geometry" />
        </mxCell>
        <mxCell id="1znggzep8ZsEVj0QqPpc-28" style="edgeStyle=orthogonalEdgeStyle;rounded=0;orthogonalLoop=1;jettySize=auto;html=1;entryX=0.5;entryY=0;entryDx=0;entryDy=0;entryPerimeter=0;flowAnimation=1;endArrow=none;endFill=0;" edge="1" parent="1" source="1znggzep8ZsEVj0QqPpc-12" target="1znggzep8ZsEVj0QqPpc-13">
          <mxGeometry relative="1" as="geometry">
            <Array as="points">
              <mxPoint x="324" y="850" />
              <mxPoint x="224" y="850" />
            </Array>
          </mxGeometry>
        </mxCell>
        <mxCell id="1znggzep8ZsEVj0QqPpc-102" style="edgeStyle=orthogonalEdgeStyle;rounded=0;orthogonalLoop=1;jettySize=auto;html=1;entryX=0;entryY=0.5;entryDx=0;entryDy=0;entryPerimeter=0;flowAnimation=1;" edge="1" parent="1" source="1znggzep8ZsEVj0QqPpc-37" target="1znggzep8ZsEVj0QqPpc-82">
          <mxGeometry relative="1" as="geometry">
            <Array as="points">
              <mxPoint x="563" y="514" />
            </Array>
          </mxGeometry>
        </mxCell>
        <mxCell id="1znggzep8ZsEVj0QqPpc-106" style="edgeStyle=orthogonalEdgeStyle;rounded=0;orthogonalLoop=1;jettySize=auto;html=1;entryX=0;entryY=0.5;entryDx=0;entryDy=0;entryPerimeter=0;flowAnimation=1;" edge="1" parent="1" source="1znggzep8ZsEVj0QqPpc-37" target="1znggzep8ZsEVj0QqPpc-81">
          <mxGeometry relative="1" as="geometry" />
        </mxCell>
        <mxCell id="1znggzep8ZsEVj0QqPpc-109" style="edgeStyle=orthogonalEdgeStyle;rounded=0;orthogonalLoop=1;jettySize=auto;html=1;entryX=0;entryY=0.5;entryDx=0;entryDy=0;entryPerimeter=0;flowAnimation=1;" edge="1" parent="1" source="1znggzep8ZsEVj0QqPpc-55" target="1znggzep8ZsEVj0QqPpc-78">
          <mxGeometry relative="1" as="geometry">
            <Array as="points">
              <mxPoint x="570" y="915" />
            </Array>
          </mxGeometry>
        </mxCell>
        <mxCell id="1znggzep8ZsEVj0QqPpc-122" value="" style="sketch=0;outlineConnect=0;fontColor=#232F3E;gradientColor=none;fillColor=#232F3D;strokeColor=none;dashed=0;verticalLabelPosition=bottom;verticalAlign=top;align=center;html=1;fontSize=12;fontStyle=0;aspect=fixed;pointerEvents=1;shape=mxgraph.aws4.client;" vertex="1" parent="1">
          <mxGeometry x="-30" y="509.48" width="58" height="56.52" as="geometry" />
        </mxCell>
        <mxCell id="1znggzep8ZsEVj0QqPpc-124" style="edgeStyle=orthogonalEdgeStyle;rounded=0;orthogonalLoop=1;jettySize=auto;html=1;entryX=0;entryY=0.25;entryDx=0;entryDy=0;entryPerimeter=0;flowAnimation=1;" edge="1" parent="1" source="1znggzep8ZsEVj0QqPpc-122" target="1znggzep8ZsEVj0QqPpc-1">
          <mxGeometry relative="1" as="geometry">
            <Array as="points">
              <mxPoint x="70" y="532" />
              <mxPoint x="70" y="532" />
            </Array>
          </mxGeometry>
        </mxCell>
        <mxCell id="1znggzep8ZsEVj0QqPpc-125" style="edgeStyle=orthogonalEdgeStyle;rounded=0;orthogonalLoop=1;jettySize=auto;html=1;entryX=1.07;entryY=0.613;entryDx=0;entryDy=0;entryPerimeter=0;flowAnimation=1;" edge="1" parent="1" source="1znggzep8ZsEVj0QqPpc-1" target="1znggzep8ZsEVj0QqPpc-122">
          <mxGeometry relative="1" as="geometry" />
        </mxCell>
      </root>
    </mxGraphModel>
  </diagram>
</mxfile>
